<?xml version="1.0" standalone="no"?>
<svg xmlns="http://www.w3.org/2000/svg" width="500" height="500"><defs><clipPath id="clip-path-dot-color"><path d="M 28 136v 12h 6a 6 6, 0, 0, 0, 0 -12" transform="rotate(180,34,142)"/><circle cx="34" cy="166" r="6" transform="rotate(0,34,166)"/><path d="M 28 196v 12h 12v -6a 6 6, 0, 0, 0, -6 -6" transform="rotate(-90,34,202)"/><rect x="28" y="208" width="12" height="12" transform="rotate(0,34,214)"/><path d="M 28 220v 12h 6a 6 6, 0, 0, 0, 0 -12" transform="rotate(90,34,226)"/><circle cx="34" cy="298" r="6" transform="rotate(0,34,298)"/><path d="M 28 316v 12h 6a 6 6, 0, 0, 0, 0 -12" transform="rotate(-90,34,322)"/><rect x="28" y="328" width="12" height="12" transform="rotate(0,34,334)"/><rect x="28" y="340" width="12" height="12" transform="rotate(0,34,346)"/><path d="M 28 352v 12h 6a 6 6, 0, 0, 0, 0 -12" transform="rotate(90,34,358)"/><rect x="40" y="136" width="12" height="12" transform="rotate(0,46,142)"/><path d="M 40 184v 12h 12v -6a 6 6, 0, 0, 0, -6 -6" transform="rotate(-90,46,190)"/><rect x="40" y="196" width="12" height="12" transform="rotate(0,46,202)"/><rect x="40" y="208" width="12" height="12" transform="rotate(0,46,214)"/><path d="M 40 232v 12h 6a 6 6, 0, 0, 0, 0 -12" transform="rotate(-90,46,238)"/><path d="M 40 244v 12h 6a 6 6, 0, 0, 0, 0 -12" transform="rotate(90,46,250)"/><rect x="40" y="340" width="12" height="12" transform="rotate(0,46,346)"/><circle cx="46" cy="370" r="6" transform="rotate(0,46,370)"/><path d="M 52 124v 12h 6a 6 6, 0, 0, 0, 0 -12" transform="rotate(-90,58,130)"/><rect x="52" y="136" width="12" height="12" transform="rotate(0,58,142)"/><circle cx="58" cy="166" r="6" transform="rotate(0,58,166)"/><path d="M 52 184v 12h 6a 6 6, 0, 0, 0, 0 -12" transform="rotate(0,58,190)"/><rect x="52" y="208" width="12" height="12" transform="rotate(0,58,214)"/><path d="M 52 268v 12h 12v -6a 6 6, 0, 0, 0, -6 -6" transform="rotate(-90,58,274)"/><path d="M 52 280v 12h 6a 6 6, 0, 0, 0, 0 -12" transform="rotate(90,58,286)"/><path d="M 52 304v 12h 6a 6 6, 0, 0, 0, 0 -12" transform="rotate(180,58,310)"/><path d="M 52 340v 12h 6a 6 6, 0, 0, 0, 0 -12" transform="rotate(0,58,346)"/><path d="M 64 136v 12h 6a 6 6, 0, 0, 0, 0 -12" transform="rotate(0,70,142)"/><path d="M 64 196v 12h 12v -6a 6 6, 0, 0, 0, -6 -6" transform="rotate(-90,70,202)"/><rect x="64" y="208" width="12" height="12" transform="rotate(0,70,214)"/><path d="M 64 256v 12h 6a 6 6, 0, 0, 0, 0 -12" transform="rotate(-90,70,262)"/><rect x="64" y="268" width="12" height="12" transform="rotate(0,70,274)"/><rect x="64" y="304" width="12" height="12" transform="rotate(0,70,310)"/><path d="M 64 328v 12h 6a 6 6, 0, 0, 0, 0 -12" transform="rotate(180,70,334)"/><circle cx="70" cy="370" r="6" transform="rotate(0,70,370)"/><path d="M 76 124v 12h 6a 6 6, 0, 0, 0, 0 -12" transform="rotate(180,82,130)"/><path d="M 76 148v 12h 6a 6 6, 0, 0, 0, 0 -12" transform="rotate(180,82,154)"/><path d="M 76 172v 12h 12v -6a 6 6, 0, 0, 0, -6 -6" transform="rotate(-90,82,178)"/><rect x="76" y="184" width="12" height="12" transform="rotate(0,82,190)"/><rect x="76" y="196" width="12" height="12" transform="rotate(0,82,202)"/><rect x="76" y="208" width="12" height="12" transform="rotate(0,82,214)"/><rect x="76" y="220" width="12" height="12" transform="rotate(0,82,226)"/><rect x="76" y="232" width="12" height="12" transform="rotate(0,82,238)"/><path d="M 76 244v 12h 12v -6a 6 6, 0, 0, 0, -6 -6" transform="rotate(180,82,250)"/><rect x="76" y="268" width="12" height="12" transform="rotate(0,82,274)"/><rect x="76" y="280" width="12" height="12" transform="rotate(0,82,286)"/><rect x="76" y="292" width="12" height="12" transform="rotate(0,82,298)"/><path d="M 76 304v 12h 12v -6a 6 6, 0, 0, 0, -6 -6" transform="rotate(90,82,310)"/><rect x="76" y="328" width="12" height="12" transform="rotate(0,82,334)"/><rect x="76" y="340" width="12" height="12" transform="rotate(0,82,346)"/><path d="M 76 352v 12h 6a 6 6, 0, 0, 0, 0 -12" transform="rotate(90,82,358)"/><rect x="88" y="124" width="12" height="12" transform="rotate(0,94,130)"/><rect x="88" y="148" width="12" height="12" transform="rotate(0,94,154)"/><rect x="88" y="172" width="12" height="12" transform="rotate(0,94,178)"/><rect x="88" y="196" width="12" height="12" transform="rotate(0,94,202)"/><rect x="88" y="244" width="12" height="12" transform="rotate(0,94,250)"/><rect x="88" y="268" width="12" height="12" transform="rotate(0,94,274)"/><path d="M 88 316v 12h 12v -6a 6 6, 0, 0, 0, -6 -6" transform="rotate(-90,94,322)"/><rect x="88" y="328" width="12" height="12" transform="rotate(0,94,334)"/><rect x="88" y="340" width="12" height="12" transform="rotate(0,94,346)"/><path d="M 88 364v 12h 6a 6 6, 0, 0, 0, 0 -12" transform="rotate(180,94,370)"/><path d="M 100 124v 12h 6a 6 6, 0, 0, 0, 0 -12" transform="rotate(0,106,130)"/><rect x="100" y="148" width="12" height="12" transform="rotate(0,106,154)"/><path d="M 100 172v 12h 6a 6 6, 0, 0, 0, 0 -12" transform="rotate(0,106,178)"/><rect x="100" y="196" width="12" height="12" transform="rotate(0,106,202)"/><circle cx="106" cy="226" r="6" transform="rotate(0,106,226)"/><path d="M 100 244v 12h 6a 6 6, 0, 0, 0, 0 -12" transform="rotate(0,106,250)"/><rect x="100" y="268" width="12" height="12" transform="rotate(0,106,274)"/><path d="M 100 292v 12h 6a 6 6, 0, 0, 0, 0 -12" transform="rotate(180,106,298)"/><path d="M 100 316v 12h 6a 6 6, 0, 0, 0, 0 -12" transform="rotate(0,106,322)"/><rect x="100" y="340" width="12" height="12" transform="rotate(0,106,346)"/><path d="M 100 364v 12h 6a 6 6, 0, 0, 0, 0 -12" transform="rotate(0,106,370)"/><path d="M 112 136v 12h 6a 6 6, 0, 0, 0, 0 -12" transform="rotate(-90,118,142)"/><rect x="112" y="148" width="12" height="12" transform="rotate(0,118,154)"/><path d="M 112 196v 12h 6a 6 6, 0, 0, 0, 0 -12" transform="rotate(0,118,202)"/><path d="M 112 232v 12h 6a 6 6, 0, 0, 0, 0 -12" transform="rotate(180,118,238)"/><path d="M 112 256v 12h 6a 6 6, 0, 0, 0, 0 -12" transform="rotate(-90,118,262)"/><rect x="112" y="268" width="12" height="12" transform="rotate(0,118,274)"/><rect x="112" y="280" width="12" height="12" transform="rotate(0,118,286)"/><rect x="112" y="292" width="12" height="12" transform="rotate(0,118,298)"/><rect x="112" y="340" width="12" height="12" transform="rotate(0,118,346)"/><circle cx="130" cy="46" r="6" transform="rotate(0,130,46)"/><path d="M 124 76v 12h 6a 6 6, 0, 0, 0, 0 -12" transform="rotate(180,130,82)"/><circle cx="130" cy="106" r="6" transform="rotate(0,130,106)"/><path d="M 124 124v 12h 6a 6 6, 0, 0, 0, 0 -12" transform="rotate(180,130,130)"/><path d="M 124 148v 12h 6a 6 6, 0, 0, 0, 0 -12" transform="rotate(0,130,154)"/><path d="M 124 172v 12h 6a 6 6, 0, 0, 0, 0 -12" transform="rotate(-90,130,178)"/><path d="M 124 184v 12h 6a 6 6, 0, 0, 0, 0 -12" transform="rotate(90,130,190)"/><path d="M 124 208v 12h 6a 6 6, 0, 0, 0, 0 -12" transform="rotate(-90,130,214)"/><rect x="124" y="220" width="12" height="12" transform="rotate(0,130,226)"/><path d="M 124 232v 12h 12v -6a 6 6, 0, 0, 0, -6 -6" transform="rotate(90,130,238)"/><rect x="124" y="280" width="12" height="12" transform="rotate(0,130,286)"/><rect x="124" y="292" width="12" height="12" transform="rotate(0,130,298)"/><path d="M 124 316v 12h 6a 6 6, 0, 0, 0, 0 -12" transform="rotate(-90,130,322)"/><rect x="124" y="328" width="12" height="12" transform="rotate(0,130,334)"/><rect x="124" y="340" width="12" height="12" transform="rotate(0,130,346)"/><path d="M 124 352v 12h 6a 6 6, 0, 0, 0, 0 -12" transform="rotate(90,130,358)"/><path d="M 124 376v 12h 6a 6 6, 0, 0, 0, 0 -12" transform="rotate(180,130,382)"/><path d="M 124 400v 12h 12v -6a 6 6, 0, 0, 0, -6 -6" transform="rotate(-90,130,406)"/><path d="M 124 412v 12h 12v -6a 6 6, 0, 0, 0, -6 -6" transform="rotate(180,130,418)"/><circle cx="130" cy="442" r="6" transform="rotate(0,130,442)"/><path d="M 136 28v 12h 6a 6 6, 0, 0, 0, 0 -12" transform="rotate(180,142,34)"/><path d="M 136 52v 12h 12v -6a 6 6, 0, 0, 0, -6 -6" transform="rotate(-90,142,58)"/><rect x="136" y="64" width="12" height="12" transform="rotate(0,142,70)"/><path d="M 136 76v 12h 12v -6a 6 6, 0, 0, 0, -6 -6" transform="rotate(90,142,82)"/><path d="M 136 124v 12h 6a 6 6, 0, 0, 0, 0 -12" transform="rotate(0,142,130)"/><circle cx="142" cy="202" r="6" transform="rotate(0,142,202)"/><path d="M 136 244v 12h 6a 6 6, 0, 0, 0, 0 -12" transform="rotate(180,142,250)"/><path d="M 136 280v 12h 12v -6a 6 6, 0, 0, 0, -6 -6" transform="rotate(0,142,286)"/><rect x="136" y="292" width="12" height="12" transform="rotate(0,142,298)"/><path d="M 136 304v 12h 12v -6a 6 6, 0, 0, 0, -6 -6" transform="rotate(180,142,310)"/><path d="M 136 364v 12h 12v -6a 6 6, 0, 0, 0, -6 -6" transform="rotate(-90,142,370)"/><rect x="136" y="376" width="12" height="12" transform="rotate(0,142,382)"/><rect x="136" y="388" width="12" height="12" transform="rotate(0,142,394)"/><rect x="136" y="400" width="12" height="12" transform="rotate(0,142,406)"/><path d="M 136 412v 12h 12v -6a 6 6, 0, 0, 0, -6 -6" transform="rotate(90,142,418)"/><rect x="148" y="28" width="12" height="12" transform="rotate(0,154,34)"/><path d="M 148 52v 12h 6a 6 6, 0, 0, 0, 0 -12" transform="rotate(0,154,58)"/><path d="M 148 88v 12h 6a 6 6, 0, 0, 0, 0 -12" transform="rotate(-90,154,94)"/><path d="M 148 100v 12h 6a 6 6, 0, 0, 0, 0 -12" transform="rotate(90,154,106)"/><path d="M 148 136v 12h 12v -6a 6 6, 0, 0, 0, -6 -6" transform="rotate(-90,154,142)"/><path d="M 148 148v 12h 12v -6a 6 6, 0, 0, 0, -6 -6" transform="rotate(180,154,154)"/><path d="M 148 208v 12h 12v -6a 6 6, 0, 0, 0, -6 -6" transform="rotate(-90,154,214)"/><rect x="148" y="220" width="12" height="12" transform="rotate(0,154,226)"/><rect x="148" y="232" width="12" height="12" transform="rotate(0,154,238)"/><rect x="148" y="244" width="12" height="12" transform="rotate(0,154,250)"/><path d="M 148 256v 12h 6a 6 6, 0, 0, 0, 0 -12" transform="rotate(90,154,262)"/><path d="M 148 292v 12h 12v -6a 6 6, 0, 0, 0, -6 -6" transform="rotate(0,154,298)"/><rect x="148" y="304" width="12" height="12" transform="rotate(0,154,310)"/><path d="M 148 328v 12h 6a 6 6, 0, 0, 0, 0 -12" transform="rotate(-90,154,334)"/><path d="M 148 340v 12h 12v -6a 6 6, 0, 0, 0, -6 -6" transform="rotate(180,154,346)"/><path d="M 148 364v 12h 12v -6a 6 6, 0, 0, 0, -6 -6" transform="rotate(0,154,370)"/><rect x="148" y="376" width="12" height="12" transform="rotate(0,154,382)"/><path d="M 148 400v 12h 6a 6 6, 0, 0, 0, 0 -12" transform="rotate(0,154,406)"/><path d="M 148 424v 12h 12v -6a 6 6, 0, 0, 0, -6 -6" transform="rotate(-90,154,430)"/><path d="M 148 436v 12h 12v -6a 6 6, 0, 0, 0, -6 -6" transform="rotate(180,154,442)"/><rect x="160" y="28" width="12" height="12" transform="rotate(0,166,34)"/><path d="M 160 64v 12h 12v -6a 6 6, 0, 0, 0, -6 -6" transform="rotate(-90,166,70)"/><path d="M 160 76v 12h 6a 6 6, 0, 0, 0, 0 -12" transform="rotate(90,166,82)"/><circle cx="166" cy="118" r="6" transform="rotate(0,166,118)"/><rect x="160" y="136" width="12" height="12" transform="rotate(0,166,142)"/><path d="M 160 148v 12h 12v -6a 6 6, 0, 0, 0, -6 -6" transform="rotate(90,166,154)"/><path d="M 160 172v 12h 6a 6 6, 0, 0, 0, 0 -12" transform="rotate(-90,166,178)"/><path d="M 160 184v 12h 6a 6 6, 0, 0, 0, 0 -12" transform="rotate(90,166,190)"/><path d="M 160 208v 12h 12v -6a 6 6, 0, 0, 0, -6 -6" transform="rotate(0,166,214)"/><rect x="160" y="220" width="12" height="12" transform="rotate(0,166,226)"/><path d="M 160 232v 12h 12v -6a 6 6, 0, 0, 0, -6 -6" transform="rotate(90,166,238)"/><path d="M 160 268v 12h 12v -6a 6 6, 0, 0, 0, -6 -6" transform="rotate(-90,166,274)"/><path d="M 160 280v 12h 12v -6a 6 6, 0, 0, 0, -6 -6" transform="rotate(180,166,286)"/><path d="M 160 304v 12h 12v -6a 6 6, 0, 0, 0, -6 -6" transform="rotate(0,166,310)"/><path d="M 160 316v 12h 12v -6a 6 6, 0, 0, 0, -6 -6" transform="rotate(180,166,322)"/><path d="M 160 340v 12h 6a 6 6, 0, 0, 0, 0 -12" transform="rotate(0,166,346)"/><rect x="160" y="376" width="12" height="12" transform="rotate(0,166,382)"/><path d="M 160 424v 12h 12v -6a 6 6, 0, 0, 0, -6 -6" transform="rotate(0,166,430)"/><rect x="160" y="436" width="12" height="12" transform="rotate(0,166,442)"/><rect x="160" y="448" width="12" height="12" transform="rotate(0,166,454)"/><path d="M 160 460v 12h 6a 6 6, 0, 0, 0, 0 -12" transform="rotate(90,166,466)"/><path d="M 172 28v 12h 6a 6 6, 0, 0, 0, 0 -12" transform="rotate(0,178,34)"/><path d="M 172 52v 12h 6a 6 6, 0, 0, 0, 0 -12" transform="rotate(-90,178,58)"/><path d="M 172 64v 12h 12v -6a 6 6, 0, 0, 0, -6 -6" transform="rotate(90,178,70)"/><circle cx="178" cy="106" r="6" transform="rotate(0,178,106)"/><path d="M 172 136v 12h 6a 6 6, 0, 0, 0, 0 -12" transform="rotate(0,178,142)"/><circle cx="178" cy="202" r="6" transform="rotate(0,178,202)"/><path d="M 172 244v 12h 6a 6 6, 0, 0, 0, 0 -12" transform="rotate(180,178,250)"/><rect x="172" y="268" width="12" height="12" transform="rotate(0,178,274)"/><rect x="172" y="280" width="12" height="12" transform="rotate(0,178,286)"/><path d="M 172 292v 12h 12v -6a 6 6, 0, 0, 0, -6 -6" transform="rotate(180,178,298)"/><path d="M 172 316v 12h 6a 6 6, 0, 0, 0, 0 -12" transform="rotate(0,178,322)"/><path d="M 172 352v 12h 6a 6 6, 0, 0, 0, 0 -12" transform="rotate(180,178,358)"/><rect x="172" y="376" width="12" height="12" transform="rotate(0,178,382)"/><rect x="172" y="388" width="12" height="12" transform="rotate(0,178,394)"/><path d="M 172 400v 12h 6a 6 6, 0, 0, 0, 0 -12" transform="rotate(90,178,406)"/><rect x="172" y="436" width="12" height="12" transform="rotate(0,178,442)"/><path d="M 172 448v 12h 12v -6a 6 6, 0, 0, 0, -6 -6" transform="rotate(90,178,454)"/><path d="M 184 184v 12h 6a 6 6, 0, 0, 0, 0 -12" transform="rotate(180,190,190)"/><path d="M 184 220v 12h 6a 6 6, 0, 0, 0, 0 -12" transform="rotate(180,190,226)"/><rect x="184" y="244" width="12" height="12" transform="rotate(0,190,250)"/><rect x="184" y="268" width="12" height="12" transform="rotate(0,190,274)"/><rect x="184" y="280" width="12" height="12" transform="rotate(0,190,286)"/><rect x="184" y="292" width="12" height="12" transform="rotate(0,190,298)"/><path d="M 184 304v 12h 12v -6a 6 6, 0, 0, 0, -6 -6" transform="rotate(180,190,310)"/><path d="M 184 340v 12h 12v -6a 6 6, 0, 0, 0, -6 -6" transform="rotate(-90,190,346)"/><rect x="184" y="352" width="12" height="12" transform="rotate(0,190,358)"/><rect x="184" y="364" width="12" height="12" transform="rotate(0,190,370)"/><rect x="184" y="376" width="12" height="12" transform="rotate(0,190,382)"/><path d="M 184 412v 12h 6a 6 6, 0, 0, 0, 0 -12" transform="rotate(180,190,418)"/><rect x="184" y="436" width="12" height="12" transform="rotate(0,190,442)"/><path d="M 196 40v 12h 12v -6a 6 6, 0, 0, 0, -6 -6" transform="rotate(-90,202,46)"/><rect x="196" y="52" width="12" height="12" transform="rotate(0,202,58)"/><path d="M 196 64v 12h 12v -6a 6 6, 0, 0, 0, -6 -6" transform="rotate(180,202,70)"/><path d="M 196 100v 12h 6a 6 6, 0, 0, 0, 0 -12" transform="rotate(-90,202,106)"/><path d="M 196 112v 12h 6a 6 6, 0, 0, 0, 0 -12" transform="rotate(90,202,118)"/><path d="M 196 136v 12h 6a 6 6, 0, 0, 0, 0 -12" transform="rotate(-90,202,142)"/><rect x="196" y="148" width="12" height="12" transform="rotate(0,202,154)"/><path d="M 196 160v 12h 12v -6a 6 6, 0, 0, 0, -6 -6" transform="rotate(180,202,166)"/><path d="M 196 184v 12h 12v -6a 6 6, 0, 0, 0, -6 -6" transform="rotate(0,202,190)"/><path d="M 196 196v 12h 12v -6a 6 6, 0, 0, 0, -6 -6" transform="rotate(180,202,202)"/><rect x="196" y="220" width="12" height="12" transform="rotate(0,202,226)"/><rect x="196" y="232" width="12" height="12" transform="rotate(0,202,238)"/><rect x="196" y="244" width="12" height="12" transform="rotate(0,202,250)"/><rect x="196" y="256" width="12" height="12" transform="rotate(0,202,262)"/><path d="M 196 268v 12h 12v -6a 6 6, 0, 0, 0, -6 -6" transform="rotate(90,202,274)"/><path d="M 196 304v 12h 12v -6a 6 6, 0, 0, 0, -6 -6" transform="rotate(0,202,310)"/><rect x="196" y="316" width="12" height="12" transform="rotate(0,202,322)"/><rect x="196" y="328" width="12" height="12" transform="rotate(0,202,334)"/><rect x="196" y="340" width="12" height="12" transform="rotate(0,202,346)"/><rect x="196" y="352" width="12" height="12" transform="rotate(0,202,358)"/><path d="M 196 376v 12h 12v -6a 6 6, 0, 0, 0, -6 -6" transform="rotate(0,202,382)"/><rect x="196" y="388" width="12" height="12" transform="rotate(0,202,394)"/><rect x="196" y="400" width="12" height="12" transform="rotate(0,202,406)"/><rect x="196" y="412" width="12" height="12" transform="rotate(0,202,418)"/><rect x="196" y="424" width="12" height="12" transform="rotate(0,202,430)"/><rect x="196" y="436" width="12" height="12" transform="rotate(0,202,442)"/><path d="M 208 28v 12h 6a 6 6, 0, 0, 0, 0 -12" transform="rotate(-90,214,34)"/><rect x="208" y="40" width="12" height="12" transform="rotate(0,214,46)"/><rect x="208" y="52" width="12" height="12" transform="rotate(0,214,58)"/><rect x="208" y="64" width="12" height="12" transform="rotate(0,214,70)"/><rect x="208" y="76" width="12" height="12" transform="rotate(0,214,82)"/><path d="M 208 88v 12h 6a 6 6, 0, 0, 0, 0 -12" transform="rotate(90,214,94)"/><rect x="208" y="160" width="12" height="12" transform="rotate(0,214,166)"/><rect x="208" y="196" width="12" height="12" transform="rotate(0,214,202)"/><path d="M 208 220v 12h 12v -6a 6 6, 0, 0, 0, -6 -6" transform="rotate(0,214,226)"/><path d="M 208 232v 12h 12v -6a 6 6, 0, 0, 0, -6 -6" transform="rotate(90,214,238)"/><path d="M 208 256v 12h 6a 6 6, 0, 0, 0, 0 -12" transform="rotate(0,214,262)"/><path d="M 208 292v 12h 6a 6 6, 0, 0, 0, 0 -12" transform="rotate(180,214,298)"/><rect x="208" y="352" width="12" height="12" transform="rotate(0,214,358)"/><rect x="208" y="400" width="12" height="12" transform="rotate(0,214,406)"/><path d="M 208 412v 12h 12v -6a 6 6, 0, 0, 0, -6 -6" transform="rotate(90,214,418)"/><rect x="208" y="436" width="12" height="12" transform="rotate(0,214,442)"/><path d="M 208 460v 12h 6a 6 6, 0, 0, 0, 0 -12" transform="rotate(180,214,466)"/><rect x="220" y="40" width="12" height="12" transform="rotate(0,226,46)"/><circle cx="226" cy="106" r="6" transform="rotate(0,226,106)"/><circle cx="226" cy="142" r="6" transform="rotate(0,226,142)"/><path d="M 220 160v 12h 6a 6 6, 0, 0, 0, 0 -12" transform="rotate(0,226,166)"/><path d="M 220 184v 12h 6a 6 6, 0, 0, 0, 0 -12" transform="rotate(-90,226,190)"/><rect x="220" y="196" width="12" height="12" transform="rotate(0,226,202)"/><circle cx="226" cy="250" r="6" transform="rotate(0,226,250)"/><path d="M 220 268v 12h 6a 6 6, 0, 0, 0, 0 -12" transform="rotate(180,226,274)"/><path d="M 220 292v 12h 6a 6 6, 0, 0, 0, 0 -12" transform="rotate(0,226,298)"/><circle cx="226" cy="322" r="6" transform="rotate(0,226,322)"/><rect x="220" y="352" width="12" height="12" transform="rotate(0,226,358)"/><path d="M 220 376v 12h 6a 6 6, 0, 0, 0, 0 -12" transform="rotate(-90,226,382)"/><rect x="220" y="388" width="12" height="12" transform="rotate(0,226,394)"/><path d="M 220 400v 12h 12v -6a 6 6, 0, 0, 0, -6 -6" transform="rotate(90,226,406)"/><path d="M 220 424v 12h 6a 6 6, 0, 0, 0, 0 -12" transform="rotate(-90,226,430)"/><path d="M 220 436v 12h 12v -6a 6 6, 0, 0, 0, -6 -6" transform="rotate(90,226,442)"/><path d="M 220 460v 12h 6a 6 6, 0, 0, 0, 0 -12" transform="rotate(0,226,466)"/><rect x="232" y="40" width="12" height="12" transform="rotate(0,238,46)"/><path d="M 232 76v 12h 12v -6a 6 6, 0, 0, 0, -6 -6" transform="rotate(-90,238,82)"/><path d="M 232 88v 12h 6a 6 6, 0, 0, 0, 0 -12" transform="rotate(90,238,94)"/><path d="M 232 124v 12h 6a 6 6, 0, 0, 0, 0 -12" transform="rotate(180,238,130)"/><path d="M 232 172v 12h 6a 6 6, 0, 0, 0, 0 -12" transform="rotate(180,238,178)"/><rect x="232" y="196" width="12" height="12" transform="rotate(0,238,202)"/><circle cx="238" cy="238" r="6" transform="rotate(0,238,238)"/><path d="M 232 256v 12h 6a 6 6, 0, 0, 0, 0 -12" transform="rotate(-90,238,262)"/><rect x="232" y="268" width="12" height="12" transform="rotate(0,238,274)"/><path d="M 232 340v 12h 12v -6a 6 6, 0, 0, 0, -6 -6" transform="rotate(-90,238,346)"/><rect x="232" y="352" width="12" height="12" transform="rotate(0,238,358)"/><path d="M 232 364v 12h 12v -6a 6 6, 0, 0, 0, -6 -6" transform="rotate(180,238,370)"/><circle cx="238" cy="418" r="6" transform="rotate(0,238,418)"/><path d="M 244 28v 12h 6a 6 6, 0, 0, 0, 0 -12" transform="rotate(-90,250,34)"/><path d="M 244 40v 12h 12v -6a 6 6, 0, 0, 0, -6 -6" transform="rotate(90,250,46)"/><path d="M 244 76v 12h 6a 6 6, 0, 0, 0, 0 -12" transform="rotate(0,250,82)"/><path d="M 244 100v 12h 6a 6 6, 0, 0, 0, 0 -12" transform="rotate(-90,250,106)"/><rect x="244" y="112" width="12" height="12" transform="rotate(0,250,118)"/><rect x="244" y="124" width="12" height="12" transform="rotate(0,250,130)"/><path d="M 244 136v 12h 12v -6a 6 6, 0, 0, 0, -6 -6" transform="rotate(180,250,142)"/><path d="M 244 160v 12h 6a 6 6, 0, 0, 0, 0 -12" transform="rotate(-90,250,166)"/><rect x="244" y="172" width="12" height="12" transform="rotate(0,250,178)"/><path d="M 244 196v 12h 12v -6a 6 6, 0, 0, 0, -6 -6" transform="rotate(0,250,202)"/><rect x="244" y="208" width="12" height="12" transform="rotate(0,250,214)"/><path d="M 244 220v 12h 12v -6a 6 6, 0, 0, 0, -6 -6" transform="rotate(180,250,226)"/><path d="M 244 268v 12h 6a 6 6, 0, 0, 0, 0 -12" transform="rotate(0,250,274)"/><circle cx="250" cy="298" r="6" transform="rotate(0,250,298)"/><rect x="244" y="340" width="12" height="12" transform="rotate(0,250,346)"/><rect x="244" y="352" width="12" height="12" transform="rotate(0,250,358)"/><path d="M 244 364v 12h 12v -6a 6 6, 0, 0, 0, -6 -6" transform="rotate(90,250,370)"/><circle cx="250" cy="394" r="6" transform="rotate(0,250,394)"/><path d="M 244 436v 12h 6a 6 6, 0, 0, 0, 0 -12" transform="rotate(180,250,442)"/><path d="M 256 52v 12h 6a 6 6, 0, 0, 0, 0 -12" transform="rotate(-90,262,58)"/><path d="M 256 64v 12h 12v -6a 6 6, 0, 0, 0, -6 -6" transform="rotate(180,262,70)"/><path d="M 256 124v 12h 12v -6a 6 6, 0, 0, 0, -6 -6" transform="rotate(0,262,130)"/><path d="M 256 136v 12h 12v -6a 6 6, 0, 0, 0, -6 -6" transform="rotate(90,262,142)"/><path d="M 256 172v 12h 12v -6a 6 6, 0, 0, 0, -6 -6" transform="rotate(0,262,178)"/><path d="M 256 184v 12h 6a 6 6, 0, 0, 0, 0 -12" transform="rotate(90,262,190)"/><rect x="256" y="220" width="12" height="12" transform="rotate(0,262,226)"/><path d="M 256 232v 12h 6a 6 6, 0, 0, 0, 0 -12" transform="rotate(90,262,238)"/><path d="M 256 256v 12h 6a 6 6, 0, 0, 0, 0 -12" transform="rotate(180,262,262)"/><path d="M 256 280v 12h 6a 6 6, 0, 0, 0, 0 -12" transform="rotate(180,262,286)"/><circle cx="262" cy="322" r="6" transform="rotate(0,262,322)"/><path d="M 256 340v 12h 12v -6a 6 6, 0, 0, 0, -6 -6" transform="rotate(0,262,346)"/><rect x="256" y="352" width="12" height="12" transform="rotate(0,262,358)"/><circle cx="262" cy="406" r="6" transform="rotate(0,262,406)"/><rect x="256" y="436" width="12" height="12" transform="rotate(0,262,442)"/><circle cx="262" cy="466" r="6" transform="rotate(0,262,466)"/><path d="M 268 40v 12h 6a 6 6, 0, 0, 0, 0 -12" transform="rotate(180,274,46)"/><rect x="268" y="64" width="12" height="12" transform="rotate(0,274,70)"/><path d="M 268 88v 12h 12v -6a 6 6, 0, 0, 0, -6 -6" transform="rotate(-90,274,94)"/><rect x="268" y="100" width="12" height="12" transform="rotate(0,274,106)"/><path d="M 268 112v 12h 6a 6 6, 0, 0, 0, 0 -12" transform="rotate(90,274,118)"/><path d="M 268 196v 12h 12v -6a 6 6, 0, 0, 0, -6 -6" transform="rotate(-90,274,202)"/><rect x="268" y="208" width="12" height="12" transform="rotate(0,274,214)"/><rect x="268" y="220" width="12" height="12" transform="rotate(0,274,226)"/><path d="M 268 244v 12h 6a 6 6, 0, 0, 0, 0 -12" transform="rotate(-90,274,250)"/><rect x="268" y="256" width="12" height="12" transform="rotate(0,274,262)"/><path d="M 268 280v 12h 6a 6 6, 0, 0, 0, 0 -12" transform="rotate(0,274,286)"/><path d="M 268 304v 12h 6a 6 6, 0, 0, 0, 0 -12" transform="rotate(180,274,310)"/><rect x="268" y="352" width="12" height="12" transform="rotate(0,274,358)"/><path d="M 268 376v 12h 6a 6 6, 0, 0, 0, 0 -12" transform="rotate(-90,274,382)"/><path d="M 268 388v 12h 6a 6 6, 0, 0, 0, 0 -12" transform="rotate(90,274,394)"/><path d="M 268 424v 12h 6a 6 6, 0, 0, 0, 0 -12" transform="rotate(-90,274,430)"/><rect x="268" y="436" width="12" height="12" transform="rotate(0,274,442)"/><path d="M 268 448v 12h 12v -6a 6 6, 0, 0, 0, -6 -6" transform="rotate(180,274,454)"/><rect x="280" y="40" width="12" height="12" transform="rotate(0,286,46)"/><rect x="280" y="64" width="12" height="12" transform="rotate(0,286,70)"/><rect x="280" y="76" width="12" height="12" transform="rotate(0,286,82)"/><rect x="280" y="88" width="12" height="12" transform="rotate(0,286,94)"/><path d="M 280 124v 12h 6a 6 6, 0, 0, 0, 0 -12" transform="rotate(180,286,130)"/><path d="M 280 148v 12h 6a 6 6, 0, 0, 0, 0 -12" transform="rotate(180,286,154)"/><path d="M 280 184v 12h 6a 6 6, 0, 0, 0, 0 -12" transform="rotate(-90,286,190)"/><rect x="280" y="196" width="12" height="12" transform="rotate(0,286,202)"/><rect x="280" y="220" width="12" height="12" transform="rotate(0,286,226)"/><path d="M 280 232v 12h 6a 6 6, 0, 0, 0, 0 -12" transform="rotate(90,286,238)"/><path d="M 280 256v 12h 6a 6 6, 0, 0, 0, 0 -12" transform="rotate(0,286,262)"/><rect x="280" y="304" width="12" height="12" transform="rotate(0,286,310)"/><rect x="280" y="352" width="12" height="12" transform="rotate(0,286,358)"/><circle cx="286" cy="418" r="6" transform="rotate(0,286,418)"/><rect x="280" y="436" width="12" height="12" transform="rotate(0,286,442)"/><path d="M 280 448v 12h 12v -6a 6 6, 0, 0, 0, -6 -6" transform="rotate(90,286,454)"/><path d="M 292 28v 12h 12v -6a 6 6, 0, 0, 0, -6 -6" transform="rotate(-90,298,34)"/><rect x="292" y="40" width="12" height="12" transform="rotate(0,298,46)"/><rect x="292" y="52" width="12" height="12" transform="rotate(0,298,58)"/><rect x="292" y="64" width="12" height="12" transform="rotate(0,298,70)"/><rect x="292" y="76" width="12" height="12" transform="rotate(0,298,82)"/><rect x="292" y="88" width="12" height="12" transform="rotate(0,298,94)"/><rect x="292" y="100" width="12" height="12" transform="rotate(0,298,106)"/><rect x="292" y="112" width="12" height="12" transform="rotate(0,298,118)"/><rect x="292" y="124" width="12" height="12" transform="rotate(0,298,130)"/><rect x="292" y="136" width="12" height="12" transform="rotate(0,298,142)"/><rect x="292" y="148" width="12" height="12" transform="rotate(0,298,154)"/><path d="M 292 160v 12h 6a 6 6, 0, 0, 0, 0 -12" transform="rotate(90,298,166)"/><rect x="292" y="196" width="12" height="12" transform="rotate(0,298,202)"/><path d="M 292 220v 12h 6a 6 6, 0, 0, 0, 0 -12" transform="rotate(0,298,226)"/><path d="M 292 244v 12h 6a 6 6, 0, 0, 0, 0 -12" transform="rotate(180,298,250)"/><path d="M 292 280v 12h 6a 6 6, 0, 0, 0, 0 -12" transform="rotate(180,298,286)"/><path d="M 292 304v 12h 12v -6a 6 6, 0, 0, 0, -6 -6" transform="rotate(0,298,310)"/><rect x="292" y="316" width="12" height="12" transform="rotate(0,298,322)"/><rect x="292" y="328" width="12" height="12" transform="rotate(0,298,334)"/><rect x="292" y="340" width="12" height="12" transform="rotate(0,298,346)"/><rect x="292" y="352" width="12" height="12" transform="rotate(0,298,358)"/><path d="M 292 364v 12h 12v -6a 6 6, 0, 0, 0, -6 -6" transform="rotate(180,298,370)"/><path d="M 292 388v 12h 6a 6 6, 0, 0, 0, 0 -12" transform="rotate(180,298,394)"/><rect x="292" y="436" width="12" height="12" transform="rotate(0,298,442)"/><rect x="304" y="28" width="12" height="12" transform="rotate(0,310,34)"/><rect x="304" y="40" width="12" height="12" transform="rotate(0,310,46)"/><rect x="304" y="52" width="12" height="12" transform="rotate(0,310,58)"/><path d="M 304 64v 12h 12v -6a 6 6, 0, 0, 0, -6 -6" transform="rotate(90,310,70)"/><rect x="304" y="112" width="12" height="12" transform="rotate(0,310,118)"/><rect x="304" y="124" width="12" height="12" transform="rotate(0,310,130)"/><path d="M 304 172v 12h 6a 6 6, 0, 0, 0, 0 -12" transform="rotate(-90,310,178)"/><rect x="304" y="184" width="12" height="12" transform="rotate(0,310,190)"/><rect x="304" y="196" width="12" height="12" transform="rotate(0,310,202)"/><rect x="304" y="244" width="12" height="12" transform="rotate(0,310,250)"/><path d="M 304 256v 12h 6a 6 6, 0, 0, 0, 0 -12" transform="rotate(90,310,262)"/><rect x="304" y="280" width="12" height="12" transform="rotate(0,310,286)"/><path d="M 304 316v 12h 12v -6a 6 6, 0, 0, 0, -6 -6" transform="rotate(0,310,322)"/><rect x="304" y="328" width="12" height="12" transform="rotate(0,310,334)"/><rect x="304" y="364" width="12" height="12" transform="rotate(0,310,370)"/><rect x="304" y="376" width="12" height="12" transform="rotate(0,310,382)"/><rect x="304" y="388" width="12" height="12" transform="rotate(0,310,394)"/><path d="M 304 400v 12h 12v -6a 6 6, 0, 0, 0, -6 -6" transform="rotate(180,310,406)"/><rect x="304" y="436" width="12" height="12" transform="rotate(0,310,442)"/><circle cx="310" cy="466" r="6" transform="rotate(0,310,466)"/><rect x="316" y="28" width="12" height="12" transform="rotate(0,322,34)"/><circle cx="322" cy="82" r="6" transform="rotate(0,322,82)"/><path d="M 316 100v 12h 6a 6 6, 0, 0, 0, 0 -12" transform="rotate(-90,322,106)"/><rect x="316" y="112" width="12" height="12" transform="rotate(0,322,118)"/><path d="M 316 124v 12h 12v -6a 6 6, 0, 0, 0, -6 -6" transform="rotate(90,322,130)"/><path d="M 316 160v 12h 6a 6 6, 0, 0, 0, 0 -12" transform="rotate(180,322,166)"/><rect x="316" y="196" width="12" height="12" transform="rotate(0,322,202)"/><path d="M 316 208v 12h 12v -6a 6 6, 0, 0, 0, -6 -6" transform="rotate(180,322,214)"/><path d="M 316 232v 12h 12v -6a 6 6, 0, 0, 0, -6 -6" transform="rotate(-90,322,238)"/><rect x="316" y="244" width="12" height="12" transform="rotate(0,322,250)"/><path d="M 316 268v 12h 6a 6 6, 0, 0, 0, 0 -12" transform="rotate(-90,322,274)"/><rect x="316" y="280" width="12" height="12" transform="rotate(0,322,286)"/><rect x="316" y="292" width="12" height="12" transform="rotate(0,322,298)"/><path d="M 316 304v 12h 12v -6a 6 6, 0, 0, 0, -6 -6" transform="rotate(180,322,310)"/><path d="M 316 328v 12h 6a 6 6, 0, 0, 0, 0 -12" transform="rotate(0,322,334)"/><path d="M 316 352v 12h 6a 6 6, 0, 0, 0, 0 -12" transform="rotate(-90,322,358)"/><rect x="316" y="364" width="12" height="12" transform="rotate(0,322,370)"/><path d="M 316 376v 12h 12v -6a 6 6, 0, 0, 0, -6 -6" transform="rotate(90,322,382)"/><path d="M 316 400v 12h 12v -6a 6 6, 0, 0, 0, -6 -6" transform="rotate(0,322,406)"/><path d="M 316 412v 12h 6a 6 6, 0, 0, 0, 0 -12" transform="rotate(90,322,418)"/><rect x="316" y="436" width="12" height="12" transform="rotate(0,322,442)"/><path d="M 316 448v 12h 6a 6 6, 0, 0, 0, 0 -12" transform="rotate(90,322,454)"/><path d="M 328 28v 12h 12v -6a 6 6, 0, 0, 0, -6 -6" transform="rotate(0,334,34)"/><path d="M 328 40v 12h 6a 6 6, 0, 0, 0, 0 -12" transform="rotate(90,334,46)"/><circle cx="334" cy="70" r="6" transform="rotate(0,334,70)"/><path d="M 328 88v 12h 6a 6 6, 0, 0, 0, 0 -12" transform="rotate(180,334,94)"/><rect x="328" y="112" width="12" height="12" transform="rotate(0,334,118)"/><path d="M 328 136v 12h 6a 6 6, 0, 0, 0, 0 -12" transform="rotate(-90,334,142)"/><rect x="328" y="148" width="12" height="12" transform="rotate(0,334,154)"/><path d="M 328 160v 12h 12v -6a 6 6, 0, 0, 0, -6 -6" transform="rotate(90,334,166)"/><path d="M 328 184v 12h 12v -6a 6 6, 0, 0, 0, -6 -6" transform="rotate(-90,334,190)"/><rect x="328" y="196" width="12" height="12" transform="rotate(0,334,202)"/><path d="M 328 208v 12h 12v -6a 6 6, 0, 0, 0, -6 -6" transform="rotate(90,334,214)"/><rect x="328" y="232" width="12" height="12" transform="rotate(0,334,238)"/><rect x="328" y="244" width="12" height="12" transform="rotate(0,334,250)"/><rect x="328" y="304" width="12" height="12" transform="rotate(0,334,310)"/><path d="M 328 340v 12h 6a 6 6, 0, 0, 0, 0 -12" transform="rotate(180,334,346)"/><circle cx="334" cy="394" r="6" transform="rotate(0,334,394)"/><path d="M 328 424v 12h 6a 6 6, 0, 0, 0, 0 -12" transform="rotate(-90,334,430)"/><path d="M 328 436v 12h 12v -6a 6 6, 0, 0, 0, -6 -6" transform="rotate(90,334,442)"/><path d="M 340 76v 12h 6a 6 6, 0, 0, 0, 0 -12" transform="rotate(-90,346,82)"/><rect x="340" y="88" width="12" height="12" transform="rotate(0,346,94)"/><rect x="340" y="100" width="12" height="12" transform="rotate(0,346,106)"/><path d="M 340 112v 12h 12v -6a 6 6, 0, 0, 0, -6 -6" transform="rotate(90,346,118)"/><path d="M 340 184v 12h 6a 6 6, 0, 0, 0, 0 -12" transform="rotate(0,346,190)"/><rect x="340" y="232" width="12" height="12" transform="rotate(0,346,238)"/><rect x="340" y="244" width="12" height="12" transform="rotate(0,346,250)"/><path d="M 340 256v 12h 12v -6a 6 6, 0, 0, 0, -6 -6" transform="rotate(180,346,262)"/><path d="M 340 292v 12h 6a 6 6, 0, 0, 0, 0 -12" transform="rotate(-90,346,298)"/><rect x="340" y="304" width="12" height="12" transform="rotate(0,346,310)"/><path d="M 340 316v 12h 6a 6 6, 0, 0, 0, 0 -12" transform="rotate(90,346,322)"/><path d="M 340 340v 12h 12v -6a 6 6, 0, 0, 0, -6 -6" transform="rotate(0,346,346)"/><path d="M 340 352v 12h 12v -6a 6 6, 0, 0, 0, -6 -6" transform="rotate(180,346,358)"/><circle cx="346" cy="382" r="6" transform="rotate(0,346,382)"/><path d="M 340 412v 12h 6a 6 6, 0, 0, 0, 0 -12" transform="rotate(180,346,418)"/><path d="M 340 448v 12h 6a 6 6, 0, 0, 0, 0 -12" transform="rotate(180,346,454)"/><path d="M 352 64v 12h 6a 6 6, 0, 0, 0, 0 -12" transform="rotate(180,358,70)"/><path d="M 352 88v 12h 6a 6 6, 0, 0, 0, 0 -12" transform="rotate(0,358,94)"/><circle cx="358" cy="130" r="6" transform="rotate(0,358,130)"/><circle cx="358" cy="166" r="6" transform="rotate(0,358,166)"/><path d="M 352 208v 12h 6a 6 6, 0, 0, 0, 0 -12" transform="rotate(-90,358,214)"/><rect x="352" y="220" width="12" height="12" transform="rotate(0,358,226)"/><rect x="352" y="232" width="12" height="12" transform="rotate(0,358,238)"/><rect x="352" y="244" width="12" height="12" transform="rotate(0,358,250)"/><rect x="352" y="256" width="12" height="12" transform="rotate(0,358,262)"/><path d="M 352 280v 12h 6a 6 6, 0, 0, 0, 0 -12" transform="rotate(180,358,286)"/><rect x="352" y="304" width="12" height="12" transform="rotate(0,358,310)"/><path d="M 352 352v 12h 12v -6a 6 6, 0, 0, 0, -6 -6" transform="rotate(0,358,358)"/><path d="M 352 364v 12h 12v -6a 6 6, 0, 0, 0, -6 -6" transform="rotate(180,358,370)"/><path d="M 352 388v 12h 12v -6a 6 6, 0, 0, 0, -6 -6" transform="rotate(-90,358,394)"/><rect x="352" y="400" width="12" height="12" transform="rotate(0,358,406)"/><rect x="352" y="412" width="12" height="12" transform="rotate(0,358,418)"/><rect x="352" y="424" width="12" height="12" transform="rotate(0,358,430)"/><rect x="352" y="436" width="12" height="12" transform="rotate(0,358,442)"/><rect x="352" y="448" width="12" height="12" transform="rotate(0,358,454)"/><path d="M 352 460v 12h 12v -6a 6 6, 0, 0, 0, -6 -6" transform="rotate(180,358,466)"/><path d="M 364 28v 12h 6a 6 6, 0, 0, 0, 0 -12" transform="rotate(-90,370,34)"/><rect x="364" y="40" width="12" height="12" transform="rotate(0,370,46)"/><rect x="364" y="52" width="12" height="12" transform="rotate(0,370,58)"/><path d="M 364 64v 12h 12v -6a 6 6, 0, 0, 0, -6 -6" transform="rotate(90,370,70)"/><circle cx="370" cy="106" r="6" transform="rotate(0,370,106)"/><circle cx="370" cy="154" r="6" transform="rotate(0,370,154)"/><rect x="364" y="220" width="12" height="12" transform="rotate(0,370,226)"/><rect x="364" y="232" width="12" height="12" transform="rotate(0,370,238)"/><rect x="364" y="244" width="12" height="12" transform="rotate(0,370,250)"/><rect x="364" y="256" width="12" height="12" transform="rotate(0,370,262)"/><rect x="364" y="268" width="12" height="12" transform="rotate(0,370,274)"/><rect x="364" y="280" width="12" height="12" transform="rotate(0,370,286)"/><rect x="364" y="292" width="12" height="12" transform="rotate(0,370,298)"/><rect x="364" y="304" width="12" height="12" transform="rotate(0,370,310)"/><path d="M 364 316v 12h 6a 6 6, 0, 0, 0, 0 -12" transform="rotate(90,370,322)"/><rect x="364" y="364" width="12" height="12" transform="rotate(0,370,370)"/><rect x="364" y="376" width="12" height="12" transform="rotate(0,370,382)"/><rect x="364" y="388" width="12" height="12" transform="rotate(0,370,394)"/><rect x="364" y="400" width="12" height="12" transform="rotate(0,370,406)"/><rect x="364" y="412" width="12" height="12" transform="rotate(0,370,418)"/><path d="M 364 460v 12h 6a 6 6, 0, 0, 0, 0 -12" transform="rotate(0,370,466)"/><circle cx="382" cy="130" r="6" transform="rotate(0,382,130)"/><path d="M 376 160v 12h 12v -6a 6 6, 0, 0, 0, -6 -6" transform="rotate(-90,382,166)"/><path d="M 376 172v 12h 6a 6 6, 0, 0, 0, 0 -12" transform="rotate(90,382,178)"/><path d="M 376 208v 12h 6a 6 6, 0, 0, 0, 0 -12" transform="rotate(-90,382,214)"/><path d="M 376 220v 12h 12v -6a 6 6, 0, 0, 0, -6 -6" transform="rotate(90,382,226)"/><path d="M 376 244v 12h 6a 6 6, 0, 0, 0, 0 -12" transform="rotate(0,382,250)"/><rect x="376" y="268" width="12" height="12" transform="rotate(0,382,274)"/><rect x="376" y="304" width="12" height="12" transform="rotate(0,382,310)"/><path d="M 376 328v 12h 6a 6 6, 0, 0, 0, 0 -12" transform="rotate(180,382,334)"/><rect x="376" y="364" width="12" height="12" transform="rotate(0,382,370)"/><rect x="376" y="412" width="12" height="12" transform="rotate(0,382,418)"/><path d="M 376 424v 12h 12v -6a 6 6, 0, 0, 0, -6 -6" transform="rotate(180,382,430)"/><path d="M 388 136v 12h 12v -6a 6 6, 0, 0, 0, -6 -6" transform="rotate(-90,394,142)"/><rect x="388" y="148" width="12" height="12" transform="rotate(0,394,154)"/><rect x="388" y="160" width="12" height="12" transform="rotate(0,394,166)"/><circle cx="394" cy="238" r="6" transform="rotate(0,394,238)"/><path d="M 388 256v 12h 6a 6 6, 0, 0, 0, 0 -12" transform="rotate(-90,394,262)"/><rect x="388" y="268" width="12" height="12" transform="rotate(0,394,274)"/><rect x="388" y="280" width="12" height="12" transform="rotate(0,394,286)"/><rect x="388" y="292" width="12" height="12" transform="rotate(0,394,298)"/><rect x="388" y="304" width="12" height="12" transform="rotate(0,394,310)"/><rect x="388" y="316" width="12" height="12" transform="rotate(0,394,322)"/><rect x="388" y="328" width="12" height="12" transform="rotate(0,394,334)"/><path d="M 388 340v 12h 12v -6a 6 6, 0, 0, 0, -6 -6" transform="rotate(180,394,346)"/><rect x="388" y="364" width="12" height="12" transform="rotate(0,394,370)"/><circle cx="394" cy="394" r="6" transform="rotate(0,394,394)"/><rect x="388" y="412" width="12" height="12" transform="rotate(0,394,418)"/><rect x="388" y="424" width="12" height="12" transform="rotate(0,394,430)"/><path d="M 388 436v 12h 12v -6a 6 6, 0, 0, 0, -6 -6" transform="rotate(180,394,442)"/><rect x="400" y="136" width="12" height="12" transform="rotate(0,406,142)"/><path d="M 400 160v 12h 6a 6 6, 0, 0, 0, 0 -12" transform="rotate(0,406,166)"/><path d="M 400 184v 12h 6a 6 6, 0, 0, 0, 0 -12" transform="rotate(180,406,190)"/><rect x="400" y="268" width="12" height="12" transform="rotate(0,406,274)"/><path d="M 400 280v 12h 12v -6a 6 6, 0, 0, 0, -6 -6" transform="rotate(90,406,286)"/><path d="M 400 304v 12h 12v -6a 6 6, 0, 0, 0, -6 -6" transform="rotate(0,406,310)"/><path d="M 400 316v 12h 12v -6a 6 6, 0, 0, 0, -6 -6" transform="rotate(90,406,322)"/><path d="M 400 340v 12h 6a 6 6, 0, 0, 0, 0 -12" transform="rotate(0,406,346)"/><rect x="400" y="364" width="12" height="12" transform="rotate(0,406,370)"/><rect x="400" y="412" width="12" height="12" transform="rotate(0,406,418)"/><rect x="400" y="436" width="12" height="12" transform="rotate(0,406,442)"/><path d="M 412 124v 12h 6a 6 6, 0, 0, 0, 0 -12" transform="rotate(-90,418,130)"/><path d="M 412 136v 12h 12v -6a 6 6, 0, 0, 0, -6 -6" transform="rotate(90,418,142)"/><path d="M 412 172v 12h 6a 6 6, 0, 0, 0, 0 -12" transform="rotate(-90,418,178)"/><rect x="412" y="184" width="12" height="12" transform="rotate(0,418,190)"/><rect x="412" y="196" width="12" height="12" transform="rotate(0,418,202)"/><rect x="412" y="208" width="12" height="12" transform="rotate(0,418,214)"/><path d="M 412 220v 12h 6a 6 6, 0, 0, 0, 0 -12" transform="rotate(90,418,226)"/><path d="M 412 268v 12h 6a 6 6, 0, 0, 0, 0 -12" transform="rotate(0,418,274)"/><rect x="412" y="364" width="12" height="12" transform="rotate(0,418,370)"/><rect x="412" y="376" width="12" height="12" transform="rotate(0,418,382)"/><rect x="412" y="388" width="12" height="12" transform="rotate(0,418,394)"/><rect x="412" y="400" width="12" height="12" transform="rotate(0,418,406)"/><rect x="412" y="412" width="12" height="12" transform="rotate(0,418,418)"/><rect x="412" y="424" width="12" height="12" transform="rotate(0,418,430)"/><rect x="412" y="436" width="12" height="12" transform="rotate(0,418,442)"/><path d="M 412 448v 12h 6a 6 6, 0, 0, 0, 0 -12" transform="rotate(90,418,454)"/><circle cx="430" cy="154" r="6" transform="rotate(0,430,154)"/><path d="M 424 208v 12h 6a 6 6, 0, 0, 0, 0 -12" transform="rotate(0,430,214)"/><circle cx="430" cy="238" r="6" transform="rotate(0,430,238)"/><path d="M 424 256v 12h 6a 6 6, 0, 0, 0, 0 -12" transform="rotate(180,430,262)"/><path d="M 424 280v 12h 12v -6a 6 6, 0, 0, 0, -6 -6" transform="rotate(-90,430,286)"/><path d="M 424 292v 12h 12v -6a 6 6, 0, 0, 0, -6 -6" transform="rotate(180,430,298)"/><path d="M 424 316v 12h 12v -6a 6 6, 0, 0, 0, -6 -6" transform="rotate(-90,430,322)"/><rect x="424" y="328" width="12" height="12" transform="rotate(0,430,334)"/><rect x="424" y="340" width="12" height="12" transform="rotate(0,430,346)"/><rect x="424" y="352" width="12" height="12" transform="rotate(0,430,358)"/><rect x="424" y="364" width="12" height="12" transform="rotate(0,430,370)"/><rect x="424" y="388" width="12" height="12" transform="rotate(0,430,394)"/><path d="M 424 400v 12h 12v -6a 6 6, 0, 0, 0, -6 -6" transform="rotate(90,430,406)"/><circle cx="442" cy="178" r="6" transform="rotate(0,442,178)"/><path d="M 436 196v 12h 6a 6 6, 0, 0, 0, 0 -12" transform="rotate(180,442,202)"/><rect x="436" y="256" width="12" height="12" transform="rotate(0,442,262)"/><rect x="436" y="280" width="12" height="12" transform="rotate(0,442,286)"/><rect x="436" y="292" width="12" height="12" transform="rotate(0,442,298)"/><rect x="436" y="304" width="12" height="12" transform="rotate(0,442,310)"/><rect x="436" y="316" width="12" height="12" transform="rotate(0,442,322)"/><rect x="436" y="328" width="12" height="12" transform="rotate(0,442,334)"/><rect x="436" y="340" width="12" height="12" transform="rotate(0,442,346)"/><rect x="436" y="352" width="12" height="12" transform="rotate(0,442,358)"/><path d="M 436 364v 12h 12v -6a 6 6, 0, 0, 0, -6 -6" transform="rotate(90,442,370)"/><rect x="436" y="388" width="12" height="12" transform="rotate(0,442,394)"/><path d="M 436 448v 12h 6a 6 6, 0, 0, 0, 0 -12" transform="rotate(180,442,454)"/><circle cx="454" cy="130" r="6" transform="rotate(0,454,130)"/><path d="M 448 148v 12h 6a 6 6, 0, 0, 0, 0 -12" transform="rotate(-90,454,154)"/><path d="M 448 160v 12h 6a 6 6, 0, 0, 0, 0 -12" transform="rotate(90,454,166)"/><path d="M 448 184v 12h 12v -6a 6 6, 0, 0, 0, -6 -6" transform="rotate(-90,454,190)"/><rect x="448" y="196" width="12" height="12" transform="rotate(0,454,202)"/><path d="M 448 208v 12h 6a 6 6, 0, 0, 0, 0 -12" transform="rotate(90,454,214)"/><path d="M 448 232v 12h 12v -6a 6 6, 0, 0, 0, -6 -6" transform="rotate(-90,454,238)"/><rect x="448" y="244" width="12" height="12" transform="rotate(0,454,250)"/><rect x="448" y="256" width="12" height="12" transform="rotate(0,454,262)"/><rect x="448" y="268" width="12" height="12" transform="rotate(0,454,274)"/><rect x="448" y="280" width="12" height="12" transform="rotate(0,454,286)"/><rect x="448" y="292" width="12" height="12" transform="rotate(0,454,298)"/><path d="M 448 304v 12h 12v -6a 6 6, 0, 0, 0, -6 -6" transform="rotate(90,454,310)"/><path d="M 448 340v 12h 12v -6a 6 6, 0, 0, 0, -6 -6" transform="rotate(0,454,346)"/><rect x="448" y="352" width="12" height="12" transform="rotate(0,454,358)"/><rect x="448" y="388" width="12" height="12" transform="rotate(0,454,394)"/><rect x="448" y="400" width="12" height="12" transform="rotate(0,454,406)"/><path d="M 448 412v 12h 6a 6 6, 0, 0, 0, 0 -12" transform="rotate(90,454,418)"/><path d="M 448 436v 12h 12v -6a 6 6, 0, 0, 0, -6 -6" transform="rotate(-90,454,442)"/><rect x="448" y="448" width="12" height="12" transform="rotate(0,454,454)"/><circle cx="466" cy="142" r="6" transform="rotate(0,466,142)"/><path d="M 460 172v 12h 6a 6 6, 0, 0, 0, 0 -12" transform="rotate(-90,466,178)"/><path d="M 460 184v 12h 12v -6a 6 6, 0, 0, 0, -6 -6" transform="rotate(90,466,190)"/><path d="M 460 220v 12h 6a 6 6, 0, 0, 0, 0 -12" transform="rotate(-90,466,226)"/><path d="M 460 232v 12h 12v -6a 6 6, 0, 0, 0, -6 -6" transform="rotate(90,466,238)"/><path d="M 460 268v 12h 12v -6a 6 6, 0, 0, 0, -6 -6" transform="rotate(0,466,274)"/><rect x="460" y="280" width="12" height="12" transform="rotate(0,466,286)"/><path d="M 460 292v 12h 12v -6a 6 6, 0, 0, 0, -6 -6" transform="rotate(90,466,298)"/><circle cx="466" cy="322" r="6" transform="rotate(0,466,322)"/><path d="M 460 352v 12h 6a 6 6, 0, 0, 0, 0 -12" transform="rotate(0,466,358)"/><path d="M 460 388v 12h 6a 6 6, 0, 0, 0, 0 -12" transform="rotate(0,466,394)"/><path d="M 460 424v 12h 6a 6 6, 0, 0, 0, 0 -12" transform="rotate(-90,466,430)"/><rect x="460" y="436" width="12" height="12" transform="rotate(0,466,442)"/><rect x="460" y="448" width="12" height="12" transform="rotate(0,466,454)"/><path d="M 460 460v 12h 6a 6 6, 0, 0, 0, 0 -12" transform="rotate(90,466,466)"/><path clip-rule="evenodd" d="M 28 28v 84h 84v -84zM 40 40h 60v 60h -60z" transform="rotate(0,70,70)"/><rect x="52" y="52" width="36" height="36" transform="rotate(0,70,70)"/><path clip-rule="evenodd" d="M 388 28v 84h 84v -84zM 400 40h 60v 60h -60z" transform="rotate(90,430,70)"/><rect x="412" y="52" width="36" height="36" transform="rotate(90,430,70)"/><path clip-rule="evenodd" d="M 28 388v 84h 84v -84zM 40 400h 60v 60h -60z" transform="rotate(-90,70,430)"/><rect x="52" y="412" width="36" height="36" transform="rotate(-90,70,430)"/></clipPath></defs><rect x="0" y="0" height="500" width="500" clip-path="url('#clip-path-background-color')" fill="#fff"/><rect x="0" y="0" height="500" width="500" clip-path="url('#clip-path-dot-color')" fill="#000000"/></svg>